PathFileType	4	(X/Y/Z)	traj.trc
DataRate	CameraRate	NumFrames	NumMarkers	Units	OrigDataRate	OrigDataStartFrame	OrigNumFrames
30.00	30.00	100	1	mm	30.00	1	100
Frame#	Time	wrist		
		X1	Y1	Z1

0	0.0	100.0	800.0	200.0
1	0.10101010101010101	100.0	800.0	200.0
2	0.20202020202020202	100.00149969392442	799.9985003060757	200.0
3	0.30303030303030304	100.00887636416479	799.9911236358353	200.0
4	0.40404040404040403	100.02770529933807	799.972294700662	200.0
5	0.5050505050505051	100.0632057590995	799.9367942409006	200.0
6	0.6060606060606061	100.12024846948927	799.8797515305107	200.0
7	0.7070707070707071	100.20336311827904	799.7966368817209	200.0
8	0.8080808080808081	100.3167458503185	799.6832541496816	200.0
9	0.9090909090909091	100.46426676288193	799.5357332371182	200.0
10	1.0101010101010102	100.64947740101482	799.3505225989852	200.0
11	1.1111111111111112	100.87561825288032	799.1243817471197	200.0
12	1.2121212121212122	101.1456262451059	798.8543737548941	200.0
13	1.3131313131313131	101.46214223812986	798.5378577618702	200.0
14	1.4141414141414141	101.82751852154789	798.1724814784521	200.0
15	1.5151515151515151	102.24382630945969	797.7561736905403	200.0
16	1.6161616161616161	102.71286323581545	797.2871367641847	200.0
17	1.7171717171717171	103.23616084976243	796.7638391502376	200.0
18	1.8181818181818181	103.8149921109916	796.1850078890085	200.0
19	1.9191919191919191	104.45037888508408	795.549621114916	200.0
20	2.0202020202020203	105.14309943885776	794.8569005611423	200.0
21	2.121212121212121	105.89369593571392	794.1063040642862	200.0
22	2.2222222222222223	106.70248193098367	793.2975180690164	200.0
23	2.323232323232323	107.5695498672746	792.4304501327254	200.0
24	2.4242424242424243	108.4947785698173	791.5052214301828	200.0
25	2.525252525252525	109.47784074181195	790.5221592581881	200.0
26	2.6262626262626263	110.51821045977488	789.4817895402252	200.0
27	2.727272727272727	111.61517066888504	788.3848293311149	200.0
28	2.8282828282828283	112.76782067833075	787.2321793216694	200.0
29	2.929292929292929	113.97508365665604	786.024916343344	200.0
30	3.0303030303030303	115.2357141271074	784.7642858728926	200.0
31	3.131313131313131	116.54830546298022	783.4516945370198	200.0
32	3.2323232323232323	117.91129738296539	782.0887026170346	200.0
33	3.3333333333333335	119.32298344649588	780.6770165535042	200.0
34	3.4343434343434343	120.78151854909329	779.2184814509068	200.0
35	3.5353535353535355	122.28492641771435	777.7150735822856	200.0
36	3.6363636363636362	123.8311071060976	776.1688928939025	200.0
37	3.7373737373737375	125.41784449010984	774.5821555098902	200.0
38	3.8383838383838382	127.0428137630928	772.9571862369072	200.0
39	3.9393939393939394	128.70358893120948	771.2964110687906	200.0
40	4.040404040404041	130.3976503087911	769.6023496912089	200.0
41	4.141414141414141	132.12239201368325	767.8776079863168	200.0
42	4.242424242424242	133.87512946259272	766.1248705374073	200.0
43	4.343434343434343	135.6531068664339	764.346893133566	200.0
44	4.444444444444445	137.45350472567546	762.5464952743245	200.0
45	4.545454545454545	139.2734473256869	760.7265526743131	200.0
46	4.646464646464646	141.11001023208496	758.889989767915	200.0
47	4.747474747474747	142.96022778608045	757.0397722139196	200.0
48	4.848484848484849	144.8211005998245	755.1788994001756	200.0
49	4.94949494949495	146.6896030517553	753.3103969482446	200.0
50	5.05050505050505	148.56269078194484	751.4373092180551	200.0
51	5.151515151515151	150.43730818744498	749.5626918125549	200.0
52	5.252525252525253	152.3103959176345	747.6896040823655	200.0
53	5.353535353535354	154.1788983695654	745.8211016304346	200.0
54	5.454545454545454	156.03977118330943	743.9602288166906	200.0
55	5.555555555555555	157.88998873730486	742.1100112626951	200.0
56	5.656565656565657	159.72655164370298	740.2734483562971	200.0
57	5.757575757575758	161.54649424371436	738.4535057562856	200.0
58	5.858585858585858	163.34689210295593	736.653107897044	200.0
59	5.959595959595959	165.12486950679713	734.8751304932028	200.0
60	6.0606060606060606	166.87760695570657	733.1223930442934	200.0
61	6.161616161616162	168.60234866059875	731.3976513394012	200.0
62	6.262626262626262	170.29641003818037	729.7035899618196	200.0
63	6.363636363636363	171.95718520629708	728.042814793703	200.0
64	6.4646464646464645	173.58215447928	726.41784552072	200.0
65	6.565656565656566	175.16889186329226	724.8311081367077	200.0
66	6.666666666666667	176.71507255167552	723.2849274483245	200.0
67	6.767676767676767	178.2184804202966	721.7815195797034	200.0
68	6.8686868686868685	179.67701552289398	720.3229844771059	200.0
69	6.96969696969697	181.0887015864245	718.9112984135755	200.0
70	7.070707070707071	182.45169350640967	717.5483064935904	200.0
71	7.171717171717171	183.76428484228248	716.2357151577176	200.0
72	7.2727272727272725	185.0249153127338	714.9750846872662	200.0
73	7.373737373737374	186.2321782910591	713.7678217089408	200.0
74	7.474747474747475	187.3848283005048	712.6151716994951	200.0
75	7.575757575757575	188.481788509615	711.5182114903849	200.0
76	7.6767676767676765	189.5221582275779	710.477841772422	200.0
77	7.777777777777778	190.50522039957258	709.4947796004274	200.0
78	7.878787878787879	191.43044910211526	708.5695508978846	200.0
79	7.979797979797979	192.2975170384062	707.7024829615938	200.0
80	8.080808080808081	193.10630303367597	706.893696966324	200.0
81	8.181818181818182	193.85689953053208	706.1431004694679	200.0
82	8.282828282828282	194.5496200843058	705.4503799156942	200.0
83	8.383838383838384	195.18500685839825	704.8149931416017	200.0
84	8.484848484848484	195.76383811962742	704.2361618803725	200.0
85	8.585858585858587	196.2871357335744	703.7128642664255	200.0
86	8.686868686868687	196.75617265993014	703.2438273400699	200.0
87	8.787878787878787	197.17248044784193	702.827519552158	200.0
88	8.88888888888889	197.53785673125998	702.46214326874	200.0
89	8.98989898989899	197.85437272428393	702.145627275716	200.0
90	9.09090909090909	198.1243807165095	701.8756192834906	200.0
91	9.191919191919192	198.35052156837503	701.649478431625	200.0
92	9.292929292929292	198.53573220650787	701.4642677934921	200.0
93	9.393939393939394	198.6832531190713	701.3167468809287	200.0
94	9.494949494949495	198.79663585111078	701.2033641488891	200.0
95	9.595959595959595	198.87975049990052	701.1202495000995	200.0
96	9.696969696969697	198.9367932102903	701.0632067897096	200.0
97	9.797979797979798	198.97229367005176	701.0277063299483	200.0
98	9.8989898989899	198.99112260522506	701.0088773947749	200.0
99	10.0	198.99849927546543	701.0015007245346	200.0
